<?xml version="1.0" standalone="no"?>
<!DOCTYPE svg PUBLIC "-//W3C//DTD SVG 20010904//EN"
 "http://www.w3.org/TR/2001/REC-SVG-20010904/DTD/svg10.dtd">
<svg version="1.0" xmlns="http://www.w3.org/2000/svg"
 width="261.000000pt" height="261.000000pt" viewBox="0 0 261.000000 261.000000"
 preserveAspectRatio="xMidYMid meet">
<metadata>
Created by potrace 1.11, written by Peter Selinger 2001-2013
</metadata>
<g transform="translate(0.000000,261.000000) scale(0.100000,-0.100000)"
fill="#000000" stroke="none">
<path d="M10 1310 l0 -1300 1300 0 1300 0 0 1300 0 1300 -1300 0 -1300 0 0
-1300z m1857 -542 c44 -21 57 -57 61 -160 l4 -98 -41 0 -41 0 0 89 c0 98 -11
121 -56 121 -48 0 -64 -31 -64 -125 l0 -85 -35 0 -35 0 0 130 0 130 28 -5 c15
-3 47 1 72 9 46 15 67 13 107 -6z m-1339 -8 c37 -23 40 -35 12 -50 -14 -7 -26
-8 -39 0 -56 30 -111 -4 -111 -69 0 -31 6 -44 26 -60 32 -25 52 -26 82 -5 21
15 25 15 43 -2 18 -16 18 -19 3 -35 -40 -44 -127 -48 -178 -8 -55 43 -70 111
-39 176 33 70 131 96 201 53z m342 -16 c46 -41 59 -86 41 -144 -20 -67 -99
-113 -166 -96 -14 4 -42 21 -62 39 -30 28 -36 42 -40 83 -9 93 47 154 139 154
41 0 54 -5 88 -36z m320 -3 c0 -39 0 -40 -33 -34 -55 9 -67 -13 -67 -118 l0
-89 -35 0 -35 0 0 136 0 136 28 -7 c16 -3 39 -1 53 4 13 5 39 10 57 10 31 1
32 0 32 -38z m297 19 c100 -61 80 -213 -33 -250 -99 -33 -199 54 -180 155 8
39 49 93 80 105 37 15 100 11 133 -10z m776 7 l37 -1 0 -126 0 -125 -52 -3
c-29 -1 -71 -3 -94 -4 -54 -3 -91 22 -116 79 -27 61 -18 105 33 156 39 39 39
39 97 32 31 -4 74 -7 95 -8z"/>
<path d="M728 703 c-24 -29 -29 -54 -18 -88 15 -45 60 -64 95 -41 49 32 55
101 12 131 -29 20 -71 19 -89 -2z"/>
<path d="M1362 697 c-58 -61 5 -160 77 -122 46 24 55 74 20 119 -26 33 -68 34
-97 3z"/>
<path d="M2116 698 c-24 -34 -20 -85 9 -113 13 -14 31 -25 40 -25 25 0 65 46
65 75 0 28 -16 66 -34 77 -23 16 -65 8 -80 -14z"/>
</g>
</svg>
