<?xml version="1.0" encoding="utf-8"?>
<!-- Generator: Adobe Illustrator 24.0.1, SVG Export Plug-In . SVG Version: 6.00 Build 0)  -->
<svg version="1.1" id="Layer_1" xmlns="http://www.w3.org/2000/svg" xmlns:xlink="http://www.w3.org/1999/xlink" x="0px" y="0px"
	 viewBox="0 0 20.5 16.2" style="enable-background:new 0 0 20.5 16.2;" xml:space="preserve">
<style type="text/css">
	.st0{fill:#0069B3;}
</style>
<title>cam</title>
<g id="Layer_2_1_">
	<g id="Layer_3">
		<path class="st0" d="M14.3,2.4h2c0.8,0,1.6,0,2.4,0c0.9,0,1.7,0.7,1.8,1.7c0,0,0,0.1,0,0.1c0,3.4,0,6.8,0,10.3
			c0,0.9-0.7,1.7-1.7,1.8c0,0-0.1,0-0.1,0c-5.6,0-11.3,0-16.9,0c-0.8,0-1.5-0.5-1.7-1.3c0-0.2,0-0.3,0-0.5C0,11,0,7.6,0,4.2
			c0-1,0.7-1.8,1.6-1.8c0.1,0,0.1,0,0.2,0c1.4,0,2.8,0,4.2,0c0.1,0,0.3-0.1,0.3-0.2l1-2C7.3,0.1,7.4,0,7.6,0h5.3
			c0.1,0,0.2,0.1,0.3,0.2L14.3,2.4z M15.7,9.3c0-3-2.4-5.5-5.5-5.5S4.8,6.3,4.8,9.3s2.4,5.5,5.5,5.5c0,0,0,0,0,0
			C13.3,14.7,15.7,12.3,15.7,9.3z"/>
		<path class="st0" d="M13.3,9.3c0,1.7-1.4,3.1-3.1,3.1c-1.7,0-3.1-1.4-3.1-3.1c0-1.7,1.4-3.1,3.1-3.1C11.9,6.2,13.3,7.5,13.3,9.3
			C13.3,9.2,13.3,9.3,13.3,9.3z"/>
	</g>
</g>
</svg>
