<svg xmlns="http://www.w3.org/2000/svg" viewBox="0 0 20.47 16.19"><defs><style>.cls-1{fill:#fff;}</style></defs><title>cam</title><g id="Layer_2" data-name="Layer 2"><g id="Layer_3" data-name="Layer 3"><path class="cls-1" d="M14.29,2.38h2c.81,0,1.62,0,2.43,0a1.71,1.71,0,0,1,1.76,1.76c0,3.43,0,6.85,0,10.28a1.72,1.72,0,0,1-1.78,1.77c-5.63,0-11.27,0-16.91,0a1.68,1.68,0,0,1-1.73-1.3,2.07,2.07,0,0,1,0-.5C0,11,0,7.58,0,4.18A1.73,1.73,0,0,1,1.81,2.37c1.39,0,2.77,0,4.16,0a.3.3,0,0,0,.32-.19l1-2A.26.26,0,0,1,7.57,0h5.34a.26.26,0,0,1,.27.17Zm1.42,6.9a5.47,5.47,0,1,0-5.46,5.47A5.48,5.48,0,0,0,15.71,9.28Z"/><path class="cls-1" d="M13.33,9.28a3.1,3.1,0,1,1-3.11-3.09A3.07,3.07,0,0,1,13.33,9.28Z"/></g></g></svg>