<svg xmlns="http://www.w3.org/2000/svg" viewBox="0 0 237 237"><defs><style>.cls-1{fill:#0069b3;}</style></defs><title>circle</title><g id="Layer_2" data-name="Layer 2"><g id="Layer_3" data-name="Layer 3"><path class="cls-1" d="M118.58,237v-2c2.65,0,5.32-.09,8-.27l.14,2C124,236.91,121.26,237,118.58,237Zm-8.09-.27c-2.68-.18-5.39-.45-8-.81l.26-2c2.62.35,5.28.62,7.92.8Zm24.22-.83-.28-2c2.62-.36,5.25-.81,7.84-1.35l.41,2C140.05,235.08,137.36,235.54,134.71,235.9Zm-40.24-1.34c-2.63-.54-5.28-1.18-7.86-1.9l.54-1.93c2.54.71,5.14,1.34,7.73,1.87Zm56.07-1.94-.54-1.93c2.54-.71,5.09-1.52,7.58-2.41l.67,1.89C155.72,231.07,153.13,231.89,150.54,232.62Zm-71.64-2.4c-2.53-.9-5.07-1.89-7.54-3l.8-1.83c2.43,1.05,4.92,2,7.4,2.91Zm86.86-3-.8-1.83c2.42-1.06,4.83-2.21,7.17-3.42l.93,1.77C170.68,225,168.22,226.13,165.76,227.2ZM64.05,223.77c-2.38-1.23-4.76-2.56-7.06-4l1-1.7c2.26,1.37,4.6,2.69,6.94,3.9Zm116.05-4-1-1.71c2.25-1.37,4.49-2.84,6.64-4.36l1.15,1.63C184.67,216.86,182.39,218.35,180.1,219.75ZM50.22,215.36c-2.19-1.55-4.36-3.19-6.45-4.89L45,208.92c2,1.67,4.18,3.29,6.34,4.81Zm143.07-4.94L192,208.87c2.05-1.67,4.06-3.43,6-5.23l1.37,1.46C197.43,206.93,195.38,208.72,193.29,210.42ZM37.67,205.16c-2-1.84-3.89-3.76-5.72-5.72l1.46-1.37c1.8,1.93,3.7,3.82,5.63,5.62Zm167.44-5.78L203.65,198c1.8-1.92,3.56-3.94,5.23-6l1.55,1.26C208.73,195.37,206.94,197.42,205.11,199.38Zm-178.48-6c-1.7-2.08-3.34-4.24-4.9-6.44l1.63-1.15c1.53,2.16,3.15,4.28,4.82,6.33Zm188.69-6.51-1.63-1.16c1.52-2.15,3-4.39,4.37-6.65l1.71,1C218.37,182.37,216.87,184.65,215.32,186.84Zm-198-6.68c-1.4-2.29-2.74-4.65-4-7l1.78-.92c1.22,2.34,2.53,4.67,3.9,6.92ZM223.74,173,222,172.1c1.21-2.34,2.36-4.76,3.42-7.19l1.83.8C226.15,168.18,225,170.64,223.74,173ZM9.83,165.83c-1.07-2.46-2.07-5-3-7.51l1.88-.68c.88,2.49,1.87,5,2.92,7.39Zm220.36-7.66-1.88-.67c.88-2.49,1.69-5,2.4-7.58l1.93.54C231.92,153.05,231.09,155.64,230.19,158.17ZM4.4,150.61C3.68,148,3,145.38,2.48,142.75l2-.41c.54,2.58,1.17,5.18,1.89,7.73Zm230.15-8-2-.4c.53-2.59,1-5.23,1.34-7.84l2,.27C235.55,137.29,235.09,140,234.55,142.6ZM1.11,134.78c-.37-2.65-.64-5.36-.83-8l2-.13c.18,2.64.45,5.3.81,7.91Zm235.62-8.2-2-.13c.18-2.63.27-5.31.27-8v-.29h2v.3C237,121.19,236.91,123.91,236.73,126.58ZM2,118.65H0v-.15c0-2.64.09-5.31.26-7.93l2,.13c-.17,2.58-.26,5.21-.26,7.8Zm232.71-8.4c-.18-2.63-.46-5.29-.82-7.91l2-.27c.37,2.65.65,5.36.84,8.05ZM3.05,102.79l-2-.27c.36-2.66.81-5.35,1.35-8l2,.41C3.85,97.53,3.4,100.17,3.05,102.79Zm229.48-8.28c-.54-2.59-1.18-5.19-1.9-7.72l1.93-.55c.73,2.58,1.37,5.23,1.93,7.86ZM6.25,87.22l-1.93-.54C5,84.1,5.86,81.5,6.75,79l1.89.66C7.76,82.13,7,84.68,6.25,87.22Zm222-8c-.89-2.47-1.87-5-2.93-7.38l1.83-.8c1.08,2.46,2.08,5,3,7.51Zm-216.66-7-1.83-.79C10.79,69,12,66.5,13.19,64.11L15,65C13.75,67.38,12.6,69.8,11.55,72.22Zm210.3-7.55c-1.23-2.34-2.54-4.67-3.92-6.92l1.71-1c1.39,2.29,2.73,4.65,4,7Zm-203-6.58-1.7-1c1.39-2.29,2.88-4.57,4.43-6.77l1.64,1.16C21.7,53.59,20.24,55.83,18.86,58.09Zm194.69-7C212,49,210.4,46.84,208.73,44.8l1.55-1.27c1.69,2.08,3.34,4.24,4.9,6.43ZM28,45.09l-1.55-1.26c1.69-2.09,3.48-4.14,5.31-6.1l1.46,1.36C31.45,41,29.7,43,28,45.09Zm175.46-6.27c-1.81-1.93-3.71-3.82-5.64-5.62l1.37-1.46c2,1.82,3.89,3.75,5.73,5.71ZM38.87,33.46,37.5,32c2-1.84,4-3.63,6.09-5.33l1.27,1.55C42.81,29.89,40.8,31.65,38.87,33.46Zm153-5.48c-2.06-1.67-4.19-3.28-6.35-4.8l1.15-1.63c2.19,1.54,4.37,3.18,6.46,4.88ZM51.18,23.41,50,21.78c2.19-1.56,4.46-3.05,6.75-4.45l1,1.7C55.56,20.41,53.33,21.88,51.18,23.41Zm127.66-4.58c-2.26-1.38-4.6-2.69-6.94-3.9l.92-1.77c2.38,1.23,4.76,2.56,7.06,4ZM64.73,15.12l-.92-1.77c2.38-1.24,4.83-2.41,7.29-3.49l.8,1.83C69.48,12.75,67.07,13.9,64.73,15.12Zm100-3.6c-2.42-1-4.91-2-7.41-2.9L158,6.73c2.54.9,5.08,1.89,7.54,3ZM79.28,8.76l-.67-1.88c2.52-.9,5.12-1.73,7.71-2.46l.54,1.93C84.31,7.06,81.76,7.88,79.28,8.76Zm70.43-2.53c-2.54-.71-5.15-1.34-7.73-1.86l.4-2c2.63.53,5.28,1.17,7.87,1.89ZM94.58,4.46l-.41-2c2.63-.55,5.31-1,8-1.38l.27,2C99.8,3.46,97.16,3.92,94.58,4.46ZM134.14,3c-2.61-.35-5.27-.62-7.91-.79l.13-2c2.69.18,5.39.45,8,.81Zm-23.81-.76-.14-2C112.86.1,115.58,0,118.27,0V2C115.63,2,113,2.1,110.33,2.28Z"/></g></g></svg>