<?xml version="1.0" encoding="utf-8"?>
<!-- Generator: Adobe Illustrator 24.0.1, SVG Export Plug-In . SVG Version: 6.00 Build 0)  -->
<svg version="1.1" id="Layer_1" xmlns="http://www.w3.org/2000/svg" xmlns:xlink="http://www.w3.org/1999/xlink" x="0px" y="0px"
	 viewBox="0 0 237 237" style="enable-background:new 0 0 237 237;" xml:space="preserve">
<style type="text/css">
	.st0{fill:#FFFFFF;}
</style>
<title>circle</title>
<g id="Layer_2_1_">
	<g id="Layer_3">
		<path class="st0" d="M118.6,237v-2c2.7,0,5.3-0.1,8-0.3l0.1,2C124,236.9,121.3,237,118.6,237z M110.5,236.7
			c-2.7-0.2-5.4-0.4-8-0.8l0.3-2c2.6,0.4,5.3,0.6,7.9,0.8L110.5,236.7z M134.7,235.9l-0.3-2c2.6-0.4,5.2-0.8,7.8-1.4l0.4,2
			C140.1,235.1,137.4,235.5,134.7,235.9z M94.5,234.6c-2.6-0.5-5.3-1.2-7.9-1.9l0.5-1.9c2.5,0.7,5.1,1.3,7.7,1.9L94.5,234.6z
			 M150.5,232.6l-0.5-1.9c2.5-0.7,5.1-1.5,7.6-2.4l0.7,1.9C155.7,231.1,153.1,231.9,150.5,232.6L150.5,232.6z M78.9,230.2
			c-2.5-0.9-5.1-1.9-7.5-3l0.8-1.8c2.4,1.1,4.9,2,7.4,2.9L78.9,230.2z M165.8,227.2l-0.8-1.8c2.4-1.1,4.8-2.2,7.2-3.4l0.9,1.8
			C170.7,225,168.2,226.1,165.8,227.2L165.8,227.2z M64.1,223.8c-2.4-1.2-4.8-2.6-7.1-4l1-1.7c2.3,1.4,4.6,2.7,6.9,3.9L64.1,223.8z
			 M180.1,219.8l-1-1.7c2.2-1.4,4.5-2.8,6.6-4.4l1.1,1.6C184.7,216.9,182.4,218.4,180.1,219.8L180.1,219.8z M50.2,215.4
			c-2.2-1.6-4.4-3.2-6.5-4.9l1.2-1.6c2,1.7,4.2,3.3,6.3,4.8L50.2,215.4z M193.3,210.4l-1.3-1.6c2.1-1.7,4.1-3.4,6-5.2l1.4,1.5
			C197.4,206.9,195.4,208.7,193.3,210.4L193.3,210.4z M37.7,205.2c-2-1.8-3.9-3.8-5.7-5.7l1.5-1.4c1.8,1.9,3.7,3.8,5.6,5.6
			L37.7,205.2z M205.1,199.4l-1.5-1.4c1.8-1.9,3.6-3.9,5.2-6l1.6,1.3C208.7,195.4,206.9,197.4,205.1,199.4z M26.6,193.4
			c-1.7-2.1-3.3-4.2-4.9-6.4l1.6-1.1c1.5,2.2,3.1,4.3,4.8,6.3L26.6,193.4z M215.3,186.9l-1.6-1.2c1.5-2.1,3-4.4,4.4-6.6l1.7,1
			C218.4,182.4,216.9,184.6,215.3,186.9L215.3,186.9z M17.3,180.2c-1.4-2.3-2.7-4.6-4-7l1.8-0.9c1.2,2.3,2.5,4.7,3.9,6.9L17.3,180.2
			z M223.7,173l-1.7-0.9c1.2-2.3,2.4-4.8,3.4-7.2l1.8,0.8C226.1,168.2,225,170.6,223.7,173z M9.8,165.8c-1.1-2.5-2.1-5-3-7.5
			l1.9-0.7c0.9,2.5,1.9,5,2.9,7.4L9.8,165.8z M230.2,158.2l-1.9-0.7c0.9-2.5,1.7-5,2.4-7.6l1.9,0.5
			C231.9,153.1,231.1,155.6,230.2,158.2z M4.4,150.6c-0.7-2.6-1.4-5.2-1.9-7.9l2-0.4c0.5,2.6,1.2,5.2,1.9,7.7L4.4,150.6z
			 M234.5,142.6l-2-0.4c0.5-2.6,1-5.2,1.3-7.8l2,0.3C235.6,137.3,235.1,140,234.5,142.6L234.5,142.6z M1.1,134.8
			c-0.4-2.6-0.6-5.4-0.8-8l2-0.1c0.2,2.6,0.5,5.3,0.8,7.9L1.1,134.8z M236.7,126.6l-2-0.1c0.2-2.6,0.3-5.3,0.3-8v-0.3h2v0.3
			C237,121.2,236.9,123.9,236.7,126.6z M2,118.7H0v-0.2c0-2.6,0.1-5.3,0.3-7.9l2,0.1c-0.2,2.6-0.3,5.2-0.3,7.8V118.7z M234.7,110.2
			c-0.2-2.6-0.5-5.3-0.8-7.9l2-0.3c0.4,2.7,0.6,5.4,0.8,8.1L234.7,110.2z M3,102.8l-2-0.3c0.4-2.7,0.8-5.3,1.4-8l2,0.4
			C3.8,97.5,3.4,100.2,3,102.8z M232.5,94.5c-0.5-2.6-1.2-5.2-1.9-7.7l1.9-0.6c0.7,2.6,1.4,5.2,1.9,7.9L232.5,94.5z M6.2,87.2
			l-1.9-0.5C5,84.1,5.9,81.5,6.8,79l1.9,0.7C7.8,82.1,7,84.7,6.2,87.2z M228.2,79.2c-0.9-2.5-1.9-5-2.9-7.4l1.8-0.8
			c1.1,2.5,2.1,5,3,7.5L228.2,79.2z M11.6,72.2l-1.8-0.8c1-2.4,2.2-4.9,3.4-7.3L15,65C13.8,67.4,12.6,69.8,11.6,72.2L11.6,72.2z
			 M221.9,64.7c-1.2-2.3-2.5-4.7-3.9-6.9l1.7-1c1.4,2.3,2.7,4.7,4,7L221.9,64.7z M18.9,58.1l-1.7-1c1.4-2.3,2.9-4.6,4.4-6.8l1.6,1.2
			C21.7,53.6,20.2,55.8,18.9,58.1L18.9,58.1z M213.6,51.1c-1.6-2.1-3.2-4.2-4.9-6.3l1.6-1.3c1.7,2.1,3.3,4.2,4.9,6.4L213.6,51.1z
			 M28,45.1l-1.5-1.3c1.7-2.1,3.5-4.1,5.3-6.1l1.5,1.4C31.5,41,29.7,43,28,45.1z M203.5,38.8c-1.8-1.9-3.7-3.8-5.6-5.6l1.4-1.5
			c2,1.8,3.9,3.8,5.7,5.7L203.5,38.8z M38.9,33.5L37.5,32c2-1.8,4-3.6,6.1-5.3l1.3,1.5C42.8,29.9,40.8,31.6,38.9,33.5z M191.9,28
			c-2.1-1.7-4.2-3.3-6.4-4.8l1.1-1.6c2.2,1.5,4.4,3.2,6.5,4.9L191.9,28z M51.2,23.4L50,21.8c2.2-1.6,4.5-3,6.8-4.4l1,1.7
			C55.6,20.4,53.3,21.9,51.2,23.4z M178.8,18.8c-2.3-1.4-4.6-2.7-6.9-3.9l0.9-1.8c2.4,1.2,4.8,2.6,7.1,4L178.8,18.8z M64.7,15.1
			l-0.9-1.8c2.4-1.2,4.8-2.4,7.3-3.5l0.8,1.8C69.5,12.8,67.1,13.9,64.7,15.1z M164.7,11.5c-2.4-1-4.9-2-7.4-2.9l0.7-1.9
			c2.5,0.9,5.1,1.9,7.5,3L164.7,11.5z M79.3,8.8l-0.7-1.9c2.5-0.9,5.1-1.7,7.7-2.5l0.5,1.9C84.3,7.1,81.8,7.9,79.3,8.8z M149.7,6.2
			c-2.5-0.7-5.1-1.3-7.7-1.9l0.4-2c2.6,0.5,5.3,1.2,7.9,1.9L149.7,6.2z M94.6,4.5l-0.4-2c2.6-0.5,5.3-1,8-1.4l0.3,2
			C99.8,3.5,97.2,3.9,94.6,4.5z M134.1,3c-2.6-0.3-5.3-0.6-7.9-0.8l0.1-2c2.7,0.2,5.4,0.4,8,0.8L134.1,3z M110.3,2.2l-0.1-2
			c2.7-0.1,5.4-0.2,8.1-0.2v2C115.6,2,113,2.1,110.3,2.2L110.3,2.2z"/>
	</g>
</g>
</svg>
