<svg xmlns="http://www.w3.org/2000/svg" viewBox="0 0 197.32 189.85"><defs><style>.cls-1{fill:#3b5998;}</style></defs><title>double</title><g id="Layer_2" data-name="Layer 2"><g id="Layer_3" data-name="Layer 3"><path class="cls-1" d="M98.63,101.87c10.31-12.26,20.49-24.37,30.69-36.48q26.16-31.06,52.34-62.1a8.56,8.56,0,0,1,11.68-1.73,8.35,8.35,0,0,1,3,11.17,18.52,18.52,0,0,1-2.49,3.73q-43.5,51.73-87,103.47c-2.57,3-5.39,5.53-9.55,4.5a11.27,11.27,0,0,1-5.56-3.38c-16.83-19.8-33.52-39.72-50.26-59.61Q22.34,38.78,3.24,16.15C1.13,13.65-.44,10.9.11,7.52a8.26,8.26,0,0,1,6.27-7,8.36,8.36,0,0,1,9.39,2.89q8.76,10.44,17.52,20.87L97.78,101C98,101.21,98.23,101.44,98.63,101.87Z"/><path class="cls-1" d="M98.65,167.07l31.92-37.92Q156,99,181.44,68.75c2.51-3,5.54-4.11,9.33-3.12a8.23,8.23,0,0,1,6.36,6.65c.72,3.38-.68,6.2-2.79,8.72q-10.41,12.47-20.85,24.92-33.56,39.86-67.12,79.7c-4.75,5.64-10.61,5.65-15.38,0Q47.39,133.78,3.77,82C1.57,79.35-.37,76.61.08,73a8.07,8.07,0,0,1,6-7.24c3.8-1.15,7-.36,9.63,2.78q21.44,25.56,42.94,51.07,19.22,22.86,38.46,45.7C97.57,165.89,98.08,166.43,98.65,167.07Z"/></g></g></svg>