<svg xmlns="http://www.w3.org/2000/svg" viewBox="0 0 191.81 169.18"><defs><style>.cls-1{fill:#0069b3;}</style></defs><title>re</title><g id="Layer_2" data-name="Layer 2"><g id="Layer_3" data-name="Layer 3"><path class="cls-1" d="M166.93,82.37c-2.34.22-4,.64-5.63.48a6.55,6.55,0,0,1-5.56-9,12.29,12.29,0,0,1,.68-1.53c2.44-4.54,4.85-9.1,7.35-13.61,2.38-4.31,6-5.43,10.35-3.18,4.52,2.35,9,4.78,13.51,7.15,2.79,1.47,4.35,3.76,4.17,6.91s-2.14,5.18-5.13,6.16a42.22,42.22,0,0,1-4.45,1.37c-1.63.34-2.18,1.08-2.07,2.8a81.49,81.49,0,0,1-3.3,28.71,84.18,84.18,0,0,1-17.35,31.61,83,83,0,0,1-25.25,19.68,84.93,84.93,0,0,1-88.72-7.13,78.62,78.62,0,0,1-14.74-13.9,7,7,0,0,1,.54-9.6,6.85,6.85,0,0,1,9.58.29c3.69,3.49,7.08,7.35,11,10.5a68,68,0,0,0,43.1,15.2c20.78.1,38.43-7.61,52.63-22.7a66.86,66.86,0,0,0,17.54-35C166.07,92.61,166.37,87.53,166.93,82.37Z"/><path class="cls-1" d="M25,86.56a29.27,29.27,0,0,1,5.42-.37,6.37,6.37,0,0,1,5.25,9c-2.6,5.56-5.52,11-8.55,16.34a6.43,6.43,0,0,1-8.35,2.56c-5.36-2.6-10.61-5.43-15.82-8.33-2.4-1.34-3.2-3.79-2.88-6.41a6.66,6.66,0,0,1,4.7-5.73c2.17-.76,4.38-1.38,6.61-2.08,0-2.88-.19-5.67-.1-8.45C12.08,57.84,22,36.82,40.92,20.27A81.73,81.73,0,0,1,80.31,1.52a84.58,84.58,0,0,1,80.48,28.74,6.9,6.9,0,1,1-10.38,9.09A75.12,75.12,0,0,0,133,24.29,69.9,69.9,0,0,0,87.88,14.21,69.08,69.08,0,0,0,46.81,33.45C33.24,46.47,26.23,62.58,25,81.27,24.89,83.06,25,84.86,25,86.56Z"/><path class="cls-1" d="M83.3,48.31c0-6.18,6-11.92,12.41-12a12.92,12.92,0,0,1,12.74,11.06,20.41,20.41,0,0,1-.39,5q-2.73,21-5.52,42c-.42,3.17-1.8,5.72-5.08,6.7-3,.91-5.87-.38-6.78-3.37a64.65,64.65,0,0,1-2-9.56c-1.48-10.53-2.82-21.09-4.22-31.64C84.1,53.82,83.69,51,83.3,48.31Z"/><path class="cls-1" d="M87.27,115.44c0-4.89,3.56-8.86,8-8.91a9,9,0,1,1,.56,17.94A8.91,8.91,0,0,1,87.27,115.44Z"/></g></g></svg>