<?xml version="1.0" encoding="utf-8"?>
<!-- Generator: Adobe Illustrator 24.0.1, SVG Export Plug-In . SVG Version: 6.00 Build 0)  -->
<svg version="1.1" id="Layer_1" xmlns="http://www.w3.org/2000/svg" xmlns:xlink="http://www.w3.org/1999/xlink" x="0px" y="0px"
	 viewBox="0 0 191.8 169.2" style="enable-background:new 0 0 191.8 169.2;" xml:space="preserve">
<style type="text/css">
	.st0{fill:#FFFFFF;}
</style>
<title>re</title>
<g id="Layer_2_1_">
	<g id="Layer_3">
		<path class="st0" d="M166.9,82.4c-2.3,0.2-4,0.6-5.6,0.5c-3.6-0.3-6.3-3.4-6-7c0.1-0.7,0.2-1.3,0.5-2c0.2-0.5,0.4-1,0.7-1.5
			c2.4-4.5,4.9-9.1,7.4-13.6c2.4-4.3,6-5.4,10.4-3.2c4.5,2.3,9,4.8,13.5,7.2c2.8,1.5,4.4,3.8,4.2,6.9s-2.1,5.2-5.1,6.2
			c-1.5,0.5-2.9,1-4.4,1.4c-1.6,0.3-2.2,1.1-2.1,2.8c0.6,9.7-0.5,19.4-3.3,28.7c-3.4,11.7-9.4,22.5-17.4,31.6
			c-7.1,8.1-15.6,14.8-25.2,19.7c-28.6,14.6-62.9,11.8-88.7-7.1c-5.5-4-10.4-8.7-14.7-13.9c-2.4-2.8-2.2-7,0.5-9.6
			c2.7-2.5,7-2.4,9.6,0.3c3.7,3.5,7.1,7.4,11,10.5c12.2,9.9,27.4,15.3,43.1,15.2c20.8,0.1,38.4-7.6,52.6-22.7
			c9.2-9.7,15.3-21.8,17.5-35C166.1,92.6,166.4,87.5,166.9,82.4z"/>
		<path class="st0" d="M25,86.6c1.8-0.3,3.6-0.4,5.4-0.4c3.5,0.3,6.1,3.4,5.8,6.9c-0.1,0.7-0.3,1.4-0.6,2.1
			c-2.6,5.6-5.5,11-8.5,16.3c-1.7,2.9-5.3,4-8.4,2.6c-5.4-2.6-10.6-5.4-15.8-8.3c-2.4-1.3-3.2-3.8-2.9-6.4c0.3-2.7,2.1-4.9,4.7-5.7
			c2.2-0.8,4.4-1.4,6.6-2.1c0-2.9-0.2-5.7-0.1-8.4C12.1,57.8,22,36.8,40.9,20.3C52.1,10.6,65.7,4.1,80.3,1.5
			c30-5.7,60.8,5.3,80.5,28.7c2.6,2.8,2.4,7.2-0.5,9.7c-2.8,2.6-7.2,2.4-9.7-0.5c-0.1-0.1-0.1-0.1-0.2-0.2c-5-5.9-10.9-11-17.4-15.1
			c-13.5-8.4-29.4-11.9-45.1-10.1c-15.5,1.6-29.9,8.4-41.1,19.2C33.2,46.5,26.2,62.6,25,81.3C24.9,83.1,25,84.9,25,86.6z"/>
		<path class="st0" d="M83.3,48.3c0-6.2,6-11.9,12.4-12c6.4,0,11.8,4.7,12.7,11.1c0.1,1.7-0.1,3.4-0.4,5c-1.8,14-3.7,28-5.5,42
			c-0.4,3.2-1.8,5.7-5.1,6.7c-3,0.9-5.9-0.4-6.8-3.4c-0.9-3.1-1.6-6.3-2-9.6c-1.5-10.5-2.8-21.1-4.2-31.6
			C84.1,53.8,83.7,51,83.3,48.3z"/>
		<path class="st0" d="M87.3,115.4c0-4.9,3.6-8.9,8-8.9c4.9-0.5,9.4,3,9.9,8s-3,9.4-8,9.9c-0.5,0-0.9,0.1-1.4,0
			C91,124.3,87.2,120.3,87.3,115.4z"/>
	</g>
</g>
</svg>
