<svg xmlns="http://www.w3.org/2000/svg" viewBox="0 0 151.32 154.12"><defs><style>.cls-1{fill:#0069b3;}</style></defs><title>plane</title><g id="Layer_2" data-name="Layer 2"><g id="Layer_3" data-name="Layer 3"><path class="cls-1" d="M145.06,0a6.18,6.18,0,0,1,5.64,8.82,41.33,41.33,0,0,1-3.41,5.25q-36,51.56-72,103.09c-2.38,3.4-5.07,4.49-8.26,3.31-2.63-1-3.82-3-4.16-5.67Q60.12,94,57.48,73.25C56.91,68.83,56.4,64.4,55.74,60a3.4,3.4,0,0,0-1.32-1.89Q32.57,42,10.66,26C6.78,23.12,6,19.1,9,16A7.64,7.64,0,0,1,13.3,13.9c15.91-1.78,31.83-3.4,47.75-5.08Q83.69,6.44,106.33,4l37.91-4C144.51,0,144.79,0,145.06,0ZM131.85,14.06,30.46,24.78a9.21,9.21,0,0,0,.71.64Q46,36.37,60.73,47.33c.89.66,1.45.38,2.19-.06Q71.8,42,80.69,36.8c3-1.76,5.94-3.57,9-5.27a6.46,6.46,0,0,1,8.26,1.22c2.65,3.14,1.83,7.47-1.92,9.71-8.56,5.1-17.11,10.2-25.74,15.16-1.67,1-2,1.92-1.78,3.75,1.27,9.15,2.37,18.31,3.55,27.47.35,2.79.74,5.58,1.16,8.74Z"/><path class="cls-1" d="M0,108.65c.59-2.83,1.25-6.55,2.16-10.21a6.15,6.15,0,0,1,7.91-4.73,6.32,6.32,0,0,1,4.23,8.12,30.91,30.91,0,0,0-.34,18,15.15,15.15,0,0,1,.9,3.61,6.16,6.16,0,0,1-4.64,5.9c-3,.72-6.28-.47-7.21-3.18A80.26,80.26,0,0,1,.39,115.51,56.2,56.2,0,0,1,0,108.65Z"/><path class="cls-1" d="M41.25,154.11A44,44,0,0,1,20,147.28a6.46,6.46,0,0,1-3-7.08,6.11,6.11,0,0,1,5.72-4.66,11.82,11.82,0,0,1,4.2,1.14c3.53,1.34,7,2.91,10.55,4.08a23.94,23.94,0,0,0,5.39.58c4.44.36,7.31,3.93,6.4,8a6.36,6.36,0,0,1-5.82,4.8C42.68,154.14,42,154.11,41.25,154.11Z"/><path class="cls-1" d="M16.13,80.64a6.34,6.34,0,0,1,3.16-5.11c5.61-3.68,11.22-7.34,16.81-11a6.53,6.53,0,0,1,5.95-.94,6,6,0,0,1,4.18,4.88,5.8,5.8,0,0,1-2.5,6.21c-6,4-12.09,8-18.29,11.8C21.18,89,16.16,85.93,16.13,80.64Z"/></g></g></svg>