<?xml version="1.0" encoding="utf-8"?>
<!-- Generator: Adobe Illustrator 24.0.1, SVG Export Plug-In . SVG Version: 6.00 Build 0)  -->
<svg version="1.1" id="Layer_1" xmlns="http://www.w3.org/2000/svg" xmlns:xlink="http://www.w3.org/1999/xlink" x="0px" y="0px"
	 viewBox="0 0 151.3 154.1" style="enable-background:new 0 0 151.3 154.1;" xml:space="preserve">
<style type="text/css">
	.st0{fill:#FFFFFF;}
</style>
<title>plane</title>
<g id="Layer_2_1_">
	<g id="Layer_3">
		<path class="st0" d="M145.1,0c3.4,0,6.2,2.7,6.2,6.1c0,0.9-0.2,1.9-0.6,2.7c-1,1.8-2.1,3.6-3.4,5.2c-24,34.4-48,68.7-72,103.1
			c-2.4,3.4-5.1,4.5-8.3,3.3c-2.6-1-3.8-3-4.2-5.7c-1.8-13.9-3.6-27.7-5.4-41.5c-0.6-4.4-1.1-8.8-1.7-13.2c-0.2-0.8-0.7-1.4-1.3-1.9
			C39.9,47.4,25.3,36.7,10.7,26C6.8,23.1,6,19.1,9,16c1.2-1.1,2.7-1.9,4.3-2.1c15.9-1.8,31.8-3.4,47.8-5.1
			C76.1,7.2,91.2,5.6,106.3,4l37.9-4C144.5,0,144.8,0,145.1,0z M131.9,14.1L30.5,24.8c0.2,0.2,0.5,0.4,0.7,0.6
			c9.9,7.3,19.7,14.6,29.6,21.9c0.9,0.7,1.5,0.4,2.2-0.1c5.9-3.5,11.8-7,17.8-10.5c3-1.8,5.9-3.6,9-5.3c2.7-1.7,6.2-1.2,8.3,1.2
			c2.7,3.1,1.8,7.5-1.9,9.7c-8.6,5.1-17.1,10.2-25.7,15.2c-1.7,1-2,1.9-1.8,3.8c1.3,9.1,2.4,18.3,3.6,27.5c0.3,2.8,0.7,5.6,1.2,8.7
			L131.9,14.1z"/>
		<path class="st0" d="M0,108.7c0.6-2.8,1.2-6.6,2.2-10.2c0.6-3.3,3.8-5.5,7.2-4.9c0.2,0,0.5,0.1,0.7,0.2c3.4,1,5.3,4.5,4.3,7.8
			c0,0.1-0.1,0.2-0.1,0.3c-1.9,5.8-2,12.1-0.3,18c0.4,1.2,0.7,2.4,0.9,3.6c0,2.8-1.9,5.2-4.6,5.9c-3,0.7-6.3-0.5-7.2-3.2
			c-1.1-3.5-2-7-2.6-10.6C0.1,113.2,0,110.9,0,108.7z"/>
		<path class="st0" d="M41.2,154.1c-7.6-0.4-14.9-2.8-21.2-6.8c-2.4-1.4-3.7-4.3-3-7.1c0.6-2.7,3-4.6,5.7-4.7
			c1.5,0.1,2.9,0.5,4.2,1.1c3.5,1.3,7,2.9,10.5,4.1c1.8,0.4,3.6,0.6,5.4,0.6c4.4,0.4,7.3,3.9,6.4,8c-0.7,2.7-3,4.6-5.8,4.8
			C42.7,154.1,42,154.1,41.2,154.1z"/>
		<path class="st0" d="M16.1,80.6c0.1-2.1,1.3-4,3.2-5.1c5.6-3.7,11.2-7.3,16.8-11c1.7-1.3,3.9-1.6,6-0.9c2.2,0.7,3.8,2.6,4.2,4.9
			c0.6,2.4-0.4,4.9-2.5,6.2c-6,4-12.1,8-18.3,11.8C21.2,89,16.2,85.9,16.1,80.6z"/>
	</g>
</g>
</svg>
