<?xml version="1.0" encoding="utf-8"?>
<!-- Generator: Adobe Illustrator 24.0.1, SVG Export Plug-In . SVG Version: 6.00 Build 0)  -->
<svg version="1.1" id="Layer_1" xmlns="http://www.w3.org/2000/svg" xmlns:xlink="http://www.w3.org/1999/xlink" x="0px" y="0px"
	 viewBox="0 0 175 154" style="enable-background:new 0 0 175 154;" xml:space="preserve">
<style type="text/css">
	.st0{fill:#FFFFFF;}
</style>
<title>danger</title>
<g id="Layer_2_1_">
	<g id="Layer_3">
		<path class="st0" d="M87.7,154h-79c-4.6,0.2-8.5-3.5-8.7-8.1c0-0.4,0-0.8,0-1.2c0.4-2,1.1-3.9,2.2-5.6c4.7-8.4,9.5-16.8,14.3-25.2
			C36.5,78.8,56.4,43.6,76.3,8.4c1-1.9,2.3-3.6,3.7-5.2c4-4.3,9.6-4.3,13.6,0c1.5,1.6,2.8,3.4,3.9,5.3c24,41.7,47.9,83.4,71.8,125.1
			c1.7,3,3.3,6.2,4.9,9.3c2.4,4.8-1.1,11-7.4,11L87.7,154z M86.8,12.2L13.1,142.4h148.2L86.8,12.2z"/>
		<path class="st0" d="M74.9,58.2c0-6.2,6-11.9,12.4-12c6.4,0,11.8,4.8,12.7,11.1c0.1,1.7-0.1,3.4-0.4,5c-1.8,14-3.7,28-5.5,42
			c-0.4,3.2-1.8,5.7-5.1,6.7c-3,0.9-5.9-0.4-6.8-3.4c-0.9-3.1-1.6-6.3-2-9.6C78.8,87.5,77.4,77,76,66.4
			C75.7,63.7,75.3,60.9,74.9,58.2z"/>
		<path class="st0" d="M78.8,125.3c0-4.9,3.6-8.9,8.1-8.9c4.9-0.5,9.4,3,9.9,8s-3,9.4-8,9.9c-0.5,0-0.9,0.1-1.4,0
			C82.6,134.2,78.8,130.2,78.8,125.3z"/>
	</g>
</g>
</svg>
