<svg xmlns="http://www.w3.org/2000/svg" viewBox="0 0 175.02 154.01"><defs><style>.cls-1{fill:#0069b3;}</style></defs><title>danger</title><g id="Layer_2" data-name="Layer 2"><g id="Layer_3" data-name="Layer 3"><path class="cls-1" d="M87.68,154h-79A8.38,8.38,0,0,1,.06,144.7a16.15,16.15,0,0,1,2.2-5.62c4.69-8.42,9.51-16.77,14.26-25.15Q46.43,61.18,76.34,8.44a28.5,28.5,0,0,1,3.74-5.19c4-4.35,9.62-4.33,13.63,0a29.7,29.7,0,0,1,3.87,5.31q35.94,62.55,71.79,125.14c1.73,3,3.29,6.16,4.87,9.27,2.45,4.82-1.08,11-7.35,11ZM86.82,12.18,13.12,142.4H161.36Z"/><path class="cls-1" d="M74.88,58.21c0-6.18,6-11.92,12.41-12A12.92,12.92,0,0,1,100,57.32a20.41,20.41,0,0,1-.39,5q-2.73,21-5.52,42c-.42,3.17-1.8,5.71-5.08,6.7-3,.9-5.88-.38-6.78-3.37a64.65,64.65,0,0,1-2-9.56c-1.48-10.54-2.82-21.09-4.22-31.64C75.68,63.72,75.27,60.94,74.88,58.21Z"/><path class="cls-1" d="M78.85,125.34c0-4.89,3.56-8.86,8.05-8.91a9,9,0,1,1,.56,17.94A8.91,8.91,0,0,1,78.85,125.34Z"/></g></g></svg>