<?xml version="1.0" encoding="utf-8"?>
<!-- Generator: Adobe Illustrator 24.0.1, SVG Export Plug-In . SVG Version: 6.00 Build 0)  -->
<svg version="1.1" id="Layer_1" xmlns="http://www.w3.org/2000/svg" xmlns:xlink="http://www.w3.org/1999/xlink" x="0px" y="0px"
	 viewBox="0 0 33.1 32.7" style="enable-background:new 0 0 33.1 32.7;" xml:space="preserve">
<style type="text/css">
	.st0{fill:#3B5998;}
</style>
<title>like</title>
<g id="Layer_2_1_">
	<g id="Layer_3">
		<path class="st0" d="M8.8,31c0,0.2,0,0.3-0.1,0.5c-0.3,0.7-1,1.2-1.8,1.1c-1.7,0-3.5,0-5.2,0c-0.6,0.1-1.2-0.3-1.5-0.8
			C0,31.5,0,31.3,0,31c0-4.9,0-9.9,0-14.8c0-0.8,0.6-1.5,1.4-1.6c0.1,0,0.2,0,0.3,0c1.7,0.1,3.4,0,5,0c0.7-0.1,1.4,0.2,1.8,0.7
			c0.1,0.1,0.1,0.3,0.1,0.4c0.1,0.1,0.1,0.3,0.1,0.5C8.7,21.2,8.8,26.1,8.8,31z"/>
		<path class="st0" d="M31.7,20c0.3,0.1,0.5,0.2,0.7,0.4c0.6,0.5,0.7,1.3,0.3,1.9c-0.1,0.1-0.3,0.3-0.4,0.4
			c-0.2,0.1-0.4,0.2-0.6,0.3c-0.5,0.2-0.8,0.8-0.7,1.3c0,0.6,0.3,1.1,0.9,1.2c0.6,0.1,0.9,0.7,0.9,1.2s-0.2,0.9-0.7,1.1
			s-0.9,0.6-1,1.1c-0.1,0.4,0.1,0.8,0.5,0.9c0.5,0.1,0.8,0.6,0.8,1.1c-0.1,0.7-0.3,1-1,1.1c-0.9,0.2-1.8,0.2-2.7,0.2
			c-1.1,0.1-2.2,0.1-3.4,0.1c-0.5,0-1.1,0.1-1.6,0.1c-1,0.1-2.1,0.1-3.1,0.1h-1c-0.5,0.1-1,0.1-1.5,0.1c-0.9,0-1.7,0-2.5,0H14
			c-0.9,0.1-1.8,0.1-2.6,0.1c-0.1,0-0.2-0.1-0.2-0.2c0.1-0.2,0.1-0.4,0-0.6c-0.1-0.6-0.1-1.3-0.1-1.9s0-1.2,0-1.7v-0.9
			c-0.1-0.6-0.1-1.3-0.1-2c0-0.4,0-0.8,0-1.1s0-0.7,0-1.1c0,0,0-0.1,0-0.2l0,0v-0.1v-0.1l0,0c-0.1-0.4-0.1-0.8,0-1.2
			c0-0.6,0-1.2,0-1.8c0.1-1.2,0-2.3-0.1-3.5c-0.1-1,0.3-2,1-2.7c0.7-1,1.5-2,2.2-2.9c1-1.4,1.9-2.7,2.9-4c0.2-0.3,0.5-0.4,0.8-0.7
			c0.7-0.7,0.9-1.7,0.5-2.6c-0.1-0.4-0.1-0.9,0.1-1.3c0.2-0.8,0.7-1.4,1.3-1.8c0.6-0.4,1.3-0.4,1.9,0c1,0.7,1.8,1.5,2.3,2.6
			C23.9,3,24,3.3,24,3.5c0.1,0.6,0.1,1.2,0,1.8c-0.1,1-0.3,2.1-0.6,3.1c-0.4,1.2-1,2.2-1.7,3.2c-0.2,0.3-0.6,0.5-0.4,0.9
			s0.6,0.3,1,0.3c1.7-0.1,3.3-0.1,5-0.1c1.5,0,2.9,0.3,4.3,0.8c0.8,0.4,1.4,1.1,1.5,2c0.2,1-0.3,2-1.1,2.5c-0.3,0.2-0.5,0.4-0.6,0.7
			C31,19.3,31.1,19.7,31.7,20z"/>
	</g>
</g>
</svg>
