<svg xmlns="http://www.w3.org/2000/svg" viewBox="0 0 33.08 32.71"><defs><style>.cls-1{fill:#fff;}</style></defs><title>like</title><g id="Layer_2" data-name="Layer 2"><g id="Layer_3" data-name="Layer 3"><path class="cls-1" d="M8.75,31a.77.77,0,0,1-.08.47,1.68,1.68,0,0,1-1.8,1.11c-1.72,0-3.45,0-5.17,0a1.54,1.54,0,0,1-1.54-.83A1.66,1.66,0,0,1,0,31c0-4.93,0-9.86,0-14.79a1.48,1.48,0,0,1,1.7-1.54c1.68.05,3.36,0,5,0a2,2,0,0,1,1.81.73.44.44,0,0,1,.1.41c.12.14.08.3.08.45Q8.75,23.63,8.75,31Z"/><path class="cls-1" d="M31.74,20a2.64,2.64,0,0,1,.71.36,1.39,1.39,0,0,1-.16,2.31,3.23,3.23,0,0,1-.58.31,1.29,1.29,0,0,0-.72,1.3,1.18,1.18,0,0,0,.9,1.21,1.25,1.25,0,0,1,.93,1.25,1.09,1.09,0,0,1-.7,1.11,1.42,1.42,0,0,0-1,1.12.77.77,0,0,0,.52.93,1,1,0,0,1,.77,1.08c-.11.69-.32,1-1,1.08-.9.17-1.81.17-2.72.25-1.12.09-2.25.07-3.37.11-.54,0-1.07.06-1.6.09a22.92,22.92,0,0,1-3.1.07l-1,0a6,6,0,0,1-1.46.07c-.85,0-1.69,0-2.54,0l-1.63,0a19.54,19.54,0,0,1-2.65.06.18.18,0,0,1-.18-.16,1,1,0,0,0,0-.56,11,11,0,0,1-.07-1.9c0-.58,0-1.16,0-1.73v-.91a11.14,11.14,0,0,1-.08-2.08c0-.37,0-.75,0-1.12s0-.72,0-1.08a.11.11,0,0,1,0-.16.22.22,0,0,0,0-.08v-.11h0A3.64,3.64,0,0,1,11,21.59c0-.6,0-1.2,0-1.81a25.83,25.83,0,0,0-.05-3.52,3.41,3.41,0,0,1,1-2.69c.74-1,1.47-2,2.2-2.94C15.05,9.32,16,8,17,6.69c.21-.27.54-.44.77-.71a2.3,2.3,0,0,0,.48-2.63,1.77,1.77,0,0,1,.09-1.26A3,3,0,0,1,19.67.26a1.68,1.68,0,0,1,1.85,0,7.11,7.11,0,0,1,2.33,2.57,2.82,2.82,0,0,1,.17.68,4.35,4.35,0,0,1,0,1.76,27.07,27.07,0,0,1-.59,3.11,9.86,9.86,0,0,1-1.72,3.19c-.2.26-.57.52-.42.86s.63.34,1,.33a48.67,48.67,0,0,1,5-.05,15.57,15.57,0,0,1,4.27.75,2.51,2.51,0,0,1,1.5,2A2.43,2.43,0,0,1,31.92,18a2.12,2.12,0,0,0-.64.69C31,19.33,31.09,19.69,31.74,20Z"/></g></g></svg>