<?xml version="1.0" encoding="utf-8"?>
<!-- Generator: Adobe Illustrator 24.0.1, SVG Export Plug-In . SVG Version: 6.00 Build 0)  -->
<svg version="1.1" id="Layer_1" xmlns="http://www.w3.org/2000/svg" xmlns:xlink="http://www.w3.org/1999/xlink" x="0px" y="0px"
	 viewBox="0 0 214.3 287.8" style="enable-background:new 0 0 214.3 287.8;" xml:space="preserve">
<style type="text/css">
	.st0{fill:#0069B3;}
</style>
<title>ver</title>
<path class="st0" d="M180.6,114.8c0,28.8,0,57.6,0,86.4c0,2.2-0.1,4.3-0.2,6.5c0,2.4-1.3,3.5-3.6,3.5c-1,0-2,0.1-3,0.1
	c-45.4,0-90.7,0-136.1,0c-4.4,0-4.9-0.6-5.1-4.8c-0.1-1.6-0.1-3.2-0.1-4.7c0-59.1,0-118.2,0-177.2c0-0.4,0-0.8,0-1.2
	c0.1-1.5-0.4-3.3,1.6-4c2.1-0.8,4.8,0,6.1,1.9c1,1.5,1.8,3.2,2.6,4.8c1.6,2.9,4.1,3.9,7.3,3.7c2.9-0.2,4.7-1.9,5.7-4.5
	c1.3-3.3,3.2-5.8,7.2-6c3.1-0.1,5.5,1,7.1,3.7c0.6,0.9,1,1.9,1.5,2.9c1.5,2.9,3.8,4.2,7.1,3.9c3.1-0.3,4.6-2.3,5.7-4.9
	c1.8-4.3,4.3-6,8.3-5.6c3.4,0.3,5.3,2.4,6.6,5.4c1.3,3.2,3.3,5.3,7.1,5.1c3.6-0.1,5.4-2.2,6.5-5.2c1.2-3.3,3.4-5.2,7-5.3
	c2.8-0.1,5,1,6.5,3.4c0.7,1.2,1.4,2.5,2,3.7c1.3,2.5,3.4,3.5,6.1,3.4c2.8-0.1,4.8-1.2,5.9-3.8c0.4-1,0.8-2,1.4-2.9
	c3.1-5.3,10.4-5.3,13.5,0.1c0.5,0.9,0.9,2,1.4,2.9c2.6,4.9,8.7,5.2,11.7,0.5c0.5-0.8,0.9-1.8,1.3-2.7c1.8-3.6,4.6-5.2,8.5-4.5
	c0.8,0.1,1.7,1.2,2,2c0.4,1,0.2,2.3,0.2,3.5C180.6,54.6,180.6,84.7,180.6,114.8z M62.3,100.1c29.5,0,59,0,88.3,0c0-5,0-9.8,0-14.5
	c-29.5,0-58.9,0-88.3,0C62.3,90.4,62.3,95.2,62.3,100.1z M62.3,129.7c29.6,0,59,0,88.4,0c0-4.9,0-9.7,0-14.4c-29.6,0-59,0-88.4,0
	C62.3,120.1,62.3,124.8,62.3,129.7z M121.2,144.9c-19.8,0-39.3,0-58.8,0c0,4.9,0,9.6,0,14.4c19.7,0,39.2,0,58.8,0
	C121.2,154.4,121.2,149.7,121.2,144.9z"/>
<polygon class="st0" points="171.8,248.8 128.6,223.8 128.6,243.8 41.8,243.8 41.8,253.8 128.6,253.8 128.6,273.7 "/>
</svg>
