<svg xmlns="http://www.w3.org/2000/svg" viewBox="0 0 168.29 168.29"><defs><style>.cls-1{fill:#0069b3;}.cls-2{fill:#fff;}</style></defs><title>coronaw-logotipo</title><g id="Layer_2" data-name="Layer 2"><g id="Layer_3" data-name="Layer 3"><rect class="cls-1" x="0.15" y="0.15" width="168" height="168"/><path class="cls-2" d="M49.73,121.92c-2.5,0-4.53,2.29-4.53,5.15s2,5.14,4.53,5.14a5.18,5.18,0,0,0,0-10.29Z"/><path class="cls-2" d="M139.66,121.92c-2.26,0-4.12,2.29-4.12,5.15s1.86,5.14,4.12,5.14,4.18-2.31,4.18-5.14S142,121.92,139.66,121.92Z"/><path class="cls-2" d="M90.79,121.92c-2.5,0-4.55,2.29-4.55,5.15a4.87,4.87,0,0,0,4.55,5.14,5.18,5.18,0,0,0,0-10.29Z"/><path class="cls-2" d="M0,0V168.29H168.29V0ZM29.14,132.21c1.27,0,3-.43,3.81-1.66l.2-.32,3,2.27-.2.26a9.19,9.19,0,1,1-1.51-12.92,9.44,9.44,0,0,1,1.51,1.52l.22.28-3,2.24-.19-.27a5,5,0,0,0-3.84-1.69c-2.52,0-4.5,2.26-4.5,5.15S26.62,132.21,29.14,132.21Zm20.59,4.09a9.23,9.23,0,1,1,9.54-9.23A9.4,9.4,0,0,1,49.73,136.3ZM76.34,124a3.77,3.77,0,0,0-3.48-1.21,3,3,0,0,0-2.48,3V136H65.6V118.19l.62.43a5.15,5.15,0,0,0,2.62.71,5.1,5.1,0,0,0,2.18-.48l.43-.22a7.86,7.86,0,0,1,3.37-.79,11,11,0,0,1,1.52.13ZM90.79,136.3a9.23,9.23,0,1,1,9.53-9.23A9.41,9.41,0,0,1,90.79,136.3Zm33.64-.37h-4.8v-9.52c0-3-1.9-4.38-3.79-4.38s-4.16,1.56-4.16,3.67v10.23h-4.8V118.19l.63.45a5.45,5.45,0,0,0,2.62.69,6,6,0,0,0,2.33-.5s1.45-.58,2-.74l.27-.06a9.69,9.69,0,0,1,1.61-.19,5.61,5.61,0,0,1,.82,0c4.31.3,7.28,3.69,7.28,8.45Zm24.22,0a5.21,5.21,0,0,0-3.32-1.19,5.77,5.77,0,0,0-2.09.42l-.64.34a7.73,7.73,0,0,1-3.4.78c-4.8,0-8.59-4.07-8.67-9.23a9,9,0,0,1,8.67-9.23h.52c.48.05.95.13,1.42.22a2.85,2.85,0,0,0,.48.13c.24.09,1,.44,1.15.48l.32.14a5.63,5.63,0,0,0,2.32.5,5.42,5.42,0,0,0,2.64-.69l.61-.45Z"/></g></g></svg>