<?xml version="1.0" encoding="utf-8"?>
<!-- Generator: Adobe Illustrator 24.0.1, SVG Export Plug-In . SVG Version: 6.00 Build 0)  -->
<svg version="1.1" id="Layer_1" xmlns="http://www.w3.org/2000/svg" xmlns:xlink="http://www.w3.org/1999/xlink" x="0px" y="0px"
	 viewBox="0 0 260 260" style="enable-background:new 0 0 260 260;" xml:space="preserve">
<style type="text/css">
	.st0{fill:#FFFFFF;}
	.st1{fill:#0069B3;}
</style>
<title>corona-logotipo</title>
<g id="Layer_2_1_">
	<g id="Layer_1-2">
		<rect x="10" y="9.2" class="st0" width="240" height="236.6"/>
		<path class="st1" d="M76.8,188.3c-4.1,0.3-7.3,3.8-7,8c0,4.4,3.1,7.9,7,7.9c4.4-0.5,7.6-4.4,7.1-8.8
			C83.5,191.7,80.5,188.8,76.8,188.3z"/>
		<path class="st1" d="M215.8,188.3c-3.5,0-6.4,3.5-6.4,8c0,4.4,2.9,7.9,6.4,7.9c3.5,0,6.5-3.6,6.5-7.9
			C222.3,191.9,219.3,188.3,215.8,188.3z"/>
		<path class="st1" d="M140.3,188.3c-4.4,0.6-7.5,4.6-6.9,9c0.5,3.6,3.3,6.5,6.9,6.9c4.4-0.5,7.6-4.4,7.1-8.8
			C146.9,191.7,144,188.8,140.3,188.3z"/>
		<path class="st1" d="M0,0v260h260V0H0z M45,204.3c2,0,4.7-0.7,5.9-2.6l0.3-0.5l4.6,3.5l-0.3,0.4c-4.9,6.2-13.8,7.2-20,2.3
			s-7.2-13.8-2.3-20c4.9-6.2,13.8-7.2,20-2.4c0.9,0.7,1.7,1.5,2.3,2.3l0.3,0.4l-4.6,3.5l-0.3-0.3c-1.5-1.7-3.7-2.7-5.9-2.6
			c-3.9,0-6.9,3.5-6.9,8S41.1,204.3,45,204.3z M76.8,210.7C69,210.4,62.8,203.8,63,196s6.8-14.1,14.7-13.8
			c7.7,0.2,13.8,6.5,13.8,14.2C91.4,204.4,84.8,210.8,76.8,210.7z M117.9,191.6c-1.3-1.5-3.4-2.2-5.4-1.9c-2.2,0.4-3.9,2.3-3.8,4.6
			v15.8h-7.4v-27.5l1,0.7c1.2,0.7,2.6,1.1,4,1.1c1.2,0,2.3-0.3,3.4-0.8l0.7-0.3c1.6-0.8,3.4-1.2,5.2-1.2c0.8,0,1.6,0.1,2.3,0.2
			L117.9,191.6z M140.3,210.7c-7.9-0.2-14.1-6.8-13.8-14.7s6.8-14.1,14.7-13.8c7.7,0.2,13.8,6.5,13.8,14.2
			C154.8,204.4,148.3,210.7,140.3,210.7z M192.2,210.1h-7.4v-14.7c0-4.6-2.9-6.8-5.9-6.8c-2.9,0-6.4,2.4-6.4,5.7v15.8h-7.4v-27.5
			l1,0.7c1.2,0.7,2.6,1.1,4,1.1c1.2,0,2.5-0.3,3.6-0.8c0,0,2.2-0.9,3.1-1.1l0.4-0.1c0.8-0.2,1.6-0.3,2.5-0.3c0.4,0,0.8,0,1.3,0
			c6.7,0.5,11.3,5.7,11.3,13.1L192.2,210.1z M229.6,210.1c-1.4-1.2-3.2-1.8-5.1-1.8c-1.1,0-2.2,0.2-3.3,0.6l-1,0.5
			c-1.6,0.8-3.4,1.2-5.3,1.2c-7.4,0-13.3-6.3-13.4-14.3c-0.2-7.6,5.8-14,13.4-14.3h0.8c0.7,0,1.5,0.2,2.2,0.3l0.7,0.2
			c0.4,0.1,1.6,0.7,1.8,0.7l0.5,0.2c1.1,0.5,2.4,0.8,3.6,0.8c1.4,0,2.8-0.4,4.1-1.1l0.9-0.7L229.6,210.1z"/>
	</g>
</g>
</svg>
