<?xml version="1.0" encoding="utf-8"?>
<!-- Generator: Adobe Illustrator 24.0.1, SVG Export Plug-In . SVG Version: 6.00 Build 0)  -->
<svg version="1.1" id="Layer_1" xmlns="http://www.w3.org/2000/svg" xmlns:xlink="http://www.w3.org/1999/xlink" x="0px" y="0px"
	 viewBox="0 0 416.2 214" style="enable-background:new 0 0 416.2 214;" xml:space="preserve">
<style type="text/css">
	.st0{fill:#EBBC56;}
</style>
<title>gana</title>
<g id="Layer_2_1_">
	<g id="Layer_1-2">
		<path class="st0" d="M64.2,0.1c11.8,0,24.7,4.9,34.3,13.2c1.1,0.8,1.4,2.3,0.6,3.4c-0.1,0.1-0.2,0.3-0.3,0.4L87.6,28.9
			c-1.1,0.9-2.7,1-3.8,0.1c-5.3-4.9-11.5-6.7-18.4-6.7c-15.3,0-27.7,12.9-27.7,28.4c0,15.4,12.4,27.9,27.8,28
			c4.3,0.1,8.5-0.7,12.5-2.2v-8.2h-8.8c-1.4,0.1-2.6-1-2.7-2.4c0,0,0-0.1,0-0.1V51.8c-0.1-1.4,1.1-2.6,2.5-2.7c0.1,0,0.1,0,0.2,0
			h28.2c1.4,0,2.6,1.2,2.6,2.7l0.1,37.8c-0.1,0.9-0.5,1.7-1.1,2.2c-10.6,6-22.6,9.2-34.8,9.2c-27.9,0-50.4-22.6-50.4-50.4
			S36.3,0.1,64.2,0.1z"/>
		<path class="st0" d="M106.7,96.1l43.9-94.5c0.5-0.9,1.4-1.5,2.4-1.5h1.4c1,0.1,1.9,0.6,2.4,1.5l44,94.5c0.7,1.2,0.2,2.7-1,3.4
			c-0.4,0.2-0.9,0.3-1.4,0.3h-15.6c-2.5,0-3.6-0.8-4.9-3.5l-5.1-11.1h-38.2l-5,11.2c-0.8,2.1-2.8,3.4-5.1,3.4h-15.5
			c-1.4,0.1-2.6-0.9-2.7-2.3C106.4,97,106.5,96.5,106.7,96.1z M164.4,66.1l-10.7-23.2h-0.1L143.1,66L164.4,66.1z"/>
		<path class="st0" d="M212.2,2.5c0.1-1.4,1.2-2.5,2.7-2.5h3.5l56,53.9h0.1V4.1c0-1.5,1.2-2.7,2.7-2.7c0,0,0,0,0,0h16.9
			c1.5,0.1,2.6,1.2,2.7,2.7v94.5c-0.1,1.4-1.2,2.5-2.7,2.5h-2.3c-0.7-0.1-1.3-0.3-1.8-0.7l-55.5-55.8h-0.1V97c0,1.5-1.2,2.7-2.7,2.7
			c0,0,0,0,0,0H215c-1.5,0-2.6-1.2-2.7-2.7L212.2,2.5z"/>
		<path class="st0" d="M308.2,96.1l44-94.5c0.5-0.9,1.4-1.5,2.4-1.5h1.4c1,0.1,1.9,0.6,2.4,1.5l44,94.5c0.7,1.2,0.2,2.7-1,3.4
			c-0.4,0.2-0.9,0.3-1.4,0.3h-15.6c-2.5,0-3.6-0.8-4.9-3.5l-5-11.1h-38.2l-5,11.2c-0.8,2.1-2.8,3.4-5.1,3.4h-15.5
			c-1.4,0.1-2.6-0.9-2.7-2.2C307.9,97,308,96.5,308.2,96.1z M366,66l-10.7-23.2h-0.1L344.6,66H366z"/>
		<path class="st0" d="M21.6,142.4c3.8-0.1,6.9,2.9,7,6.6c0,0.2,0,0.3,0,0.5c0,0.6,0,1.5-0.6,1.5H15.7c0,3.3,2.7,6.1,6,6.1
			c1.6,0,3.2-0.5,4.6-1.4c0.4-0.2,0.5-0.3,0.7,0l0.4,0.5c0.1,0.2,0.1,0.4-0.2,0.6c-1.6,1.2-3.6,1.8-5.6,1.8c-4.7,0-7.6-3.6-7.6-8.2
			S16.9,142.4,21.6,142.4z M26.9,149.6c0-3-1.8-5.7-5.3-5.7c-3.2-0.1-5.8,2.4-5.9,5.6c0,0,0,0,0,0H26.9z"/>
		<path class="st0" d="M33.2,143.3c0-0.3,0.3-0.5,0.5-0.5c0,0,0,0,0,0h0.4c0.2,0,0.4,0.2,0.5,0.4l0.2,1.7c1.5-1.5,3.6-2.4,5.7-2.4
			c4.3,0,6.2,2.8,6.2,7.1v8.3c0,0.3-0.2,0.5-0.5,0.5h-0.7c-0.3,0-0.5-0.2-0.5-0.5v-8.3c0-3.6-1.7-5.4-4.6-5.4
			c-2.1,0.1-4.1,1.1-5.5,2.7v11c0,0.2-0.1,0.5-0.4,0.5c0,0-0.1,0-0.1,0h-0.7c-0.2,0-0.4-0.2-0.4-0.5c0,0,0,0,0,0L33.2,143.3z"/>
		<path class="st0" d="M60.8,131.7c0-0.3,0.2-0.5,0.5-0.5H62c0.3,0,0.5,0.2,0.5,0.5v26.1c0,0.3-0.2,0.5-0.4,0.5c0,0-0.1,0-0.1,0
			h-0.8c-0.3,0-0.4-0.2-0.4-0.5c0,0,0,0,0,0L60.8,131.7z"/>
		<path class="st0" d="M73.6,148.3c1.3,0,2.7,0.3,3.9,0.7c0-3.4-0.3-5.1-3.4-5.1c-1.6,0-3.2,0.3-4.7,1c-0.2,0.1-0.4,0-0.5-0.2
			c0,0,0-0.1,0-0.1l-0.2-0.5c-0.1-0.2,0-0.4,0.2-0.6c0,0,0,0,0.1,0c1.7-0.8,3.5-1.2,5.3-1.2c4.7,0,4.9,2.8,4.9,6.8v8.6
			c0,0.3-0.2,0.5-0.5,0.5h-0.5c-0.3,0-0.4-0.2-0.5-0.4l-0.2-1.4c-1.5,1.4-3.4,2.2-5.4,2.2c-2.7,0.1-5-2-5.1-4.7c0-0.2,0-0.3,0-0.5
			C67.1,150.5,69.5,148.3,73.6,148.3z M72.4,157.1c2,0,3.9-0.9,5.2-2.4v-4.3c-1.2-0.5-2.6-0.8-3.9-0.8c-2.9,0-4.9,1.5-4.9,3.8
			c-0.1,1.9,1.4,3.6,3.3,3.7C72.1,157.2,72.2,157.2,72.4,157.1z"/>
		<path class="st0" d="M94.3,144.3h-2.3c-0.3,0-0.5-0.2-0.5-0.5c0,0,0,0,0,0v-0.5c0-0.3,0.2-0.5,0.5-0.5h2.3v-5.3
			c0-4.6,2.5-6.7,5.8-6.7c1.6,0,3.2,0.6,4.3,1.7c0.2,0.2,0.2,0.4,0.1,0.6l-0.4,0.6c-0.1,0.2-0.4,0.2-0.6,0.1c0,0-0.1-0.1-0.1-0.1
			c-0.9-0.8-2.1-1.3-3.4-1.3c-2.4,0-4.2,1.6-4.2,5.1v5.3h5.7c0.2,0,0.5,0.2,0.5,0.4c0,0,0,0,0,0.1v0.6c0,0.2-0.2,0.5-0.4,0.5
			c0,0-0.1,0-0.1,0H96v13.5c0,0.3-0.2,0.5-0.5,0.5h-0.7c-0.3,0-0.5-0.2-0.5-0.5L94.3,144.3z"/>
		<path class="st0" d="M111.9,142.4c3.8-0.1,6.9,2.9,7,6.6c0,0.2,0,0.3,0,0.5c0,0.6,0,1.5-0.6,1.5H106c0,3.3,2.7,6.1,6,6.1
			c1.6,0,3.2-0.5,4.6-1.4c0.3-0.2,0.5-0.3,0.7,0l0.4,0.5c0.1,0.2,0.1,0.4-0.2,0.6c-1.6,1.2-3.6,1.8-5.6,1.8c-4.7,0-7.6-3.6-7.6-8.2
			S107.2,142.4,111.9,142.4z M117.2,149.6c0-3-1.8-5.7-5.3-5.7c-3.2-0.1-5.8,2.4-5.9,5.6c0,0,0,0,0,0.1H117.2z"/>
		<path class="st0" d="M123.5,143.3c0-0.3,0.2-0.5,0.5-0.5h0.5c0.2,0,0.4,0.2,0.5,0.4l0.2,1.6c1.1-1.5,2.9-2.4,4.8-2.4
			c0.8,0,1.6,0.2,2.4,0.5c0.4,0.1,0.5,0.4,0.4,0.7l-0.3,0.8c-0.1,0.3-0.4,0.3-0.6,0.2c-0.6-0.3-1.3-0.4-2-0.5c-1.9,0-3.6,1-4.6,2.7
			v11c0,0.2-0.1,0.5-0.4,0.5c0,0-0.1,0-0.1,0h-0.8c-0.2,0-0.4-0.2-0.4-0.5c0,0,0,0,0,0L123.5,143.3z"/>
		<path class="st0" d="M135.6,133.9c0-0.7,0.6-1.3,1.3-1.3s1.3,0.6,1.3,1.3c0,0,0,0,0,0c0,0.7-0.6,1.3-1.3,1.3
			C136.2,135.2,135.6,134.6,135.6,133.9z M136.1,143.3c0-0.3,0.2-0.5,0.5-0.5h0.7c0.3,0,0.5,0.2,0.5,0.5v14.5c0,0.2-0.1,0.5-0.4,0.5
			c0,0-0.1,0-0.1,0h-0.8c-0.2,0-0.4-0.2-0.4-0.5c0,0,0,0,0,0V143.3z"/>
		<path class="st0" d="M148.9,148.3c1.3,0,2.7,0.3,3.9,0.7c0-3.4-0.4-5.1-3.4-5.1c-1.6,0-3.2,0.3-4.6,1c-0.2,0.1-0.4,0-0.5-0.2
			c0,0,0-0.1,0-0.1l-0.2-0.5c-0.1-0.2,0-0.4,0.1-0.5c0,0,0.1,0,0.1,0c1.6-0.8,3.5-1.2,5.3-1.2c4.7,0,4.9,2.8,4.9,6.8v8.6
			c0,0.3-0.2,0.5-0.5,0.5h-0.5c-0.3,0-0.4-0.2-0.5-0.4l-0.2-1.4c-1.5,1.4-3.4,2.2-5.4,2.2c-2.7,0.1-5-2-5.1-4.7c0-0.2,0-0.3,0-0.5
			C142.4,150.5,144.9,148.3,148.9,148.3z M147.7,157.1c2,0,3.8-0.9,5.1-2.4v-4.3c-1.2-0.5-2.6-0.8-3.9-0.8c-2.9,0-4.9,1.5-4.9,3.8
			c-0.1,1.9,1.4,3.6,3.3,3.7C147.4,157.2,147.6,157.2,147.7,157.1z"/>
		<path class="st0" d="M175.6,142.4c2.2-0.1,4.3,0.8,5.7,2.4c0.2,0.2,0.2,0.5,0,0.7c0,0,0,0,0,0l-0.4,0.4c-0.3,0.3-0.6,0.1-0.8-0.1
			c-2.6-2.4-6.7-2.3-9.1,0.4s-2.3,6.7,0.4,9.1c1.2,1.1,2.7,1.7,4.3,1.7c1.9,0,3.7-0.8,4.9-2.3c0.3-0.3,0.5-0.3,0.7-0.1l0.4,0.4
			c0.2,0.2,0.3,0.4,0.1,0.6c-1.5,1.9-3.7,3-6.1,3c-4.5-0.2-8-3.9-7.8-8.4C167.9,146,171.3,142.6,175.6,142.4L175.6,142.4z"/>
		<path class="st0" d="M193,142.4c4.5-0.2,8.3,3.3,8.5,7.8c0.2,4.5-3.3,8.3-7.8,8.5c-4.5,0.2-8.3-3.3-8.5-7.8c0-0.1,0-0.3,0-0.4
			C185.2,146.1,188.6,142.5,193,142.4z M193,157.1c3.6,0.2,6.7-2.5,6.9-6.1c0.2-3.6-2.5-6.7-6.1-6.9s-6.7,2.5-6.9,6.1
			c0,0.1,0,0.2,0,0.4c-0.2,3.5,2.5,6.4,6,6.6C192.9,157.1,193,157.1,193,157.1z"/>
		<path class="st0" d="M205.5,143.3c0-0.3,0.3-0.5,0.5-0.5c0,0,0,0,0,0h0.4c0.2,0,0.4,0.2,0.5,0.4l0.2,1.7c1.5-1.5,3.6-2.4,5.7-2.4
			c4.3,0,6.2,2.8,6.2,7.1v8.3c0,0.3-0.2,0.5-0.5,0.5h-0.7c-0.3,0-0.5-0.2-0.5-0.5v-8.3c0-3.6-1.7-5.4-4.6-5.4
			c-2.1,0.1-4.1,1.1-5.5,2.7v11c0,0.2-0.1,0.5-0.4,0.5c0,0-0.1,0-0.1,0h-0.7c-0.2,0-0.4-0.2-0.4-0.5c0,0,0,0,0,0L205.5,143.3z"/>
		<path class="st0" d="M245.6,130.8c3.5-0.1,6.9,1.2,9.4,3.6c0.3,0.3,0.3,0.7,0.1,1c0,0,0,0-0.1,0.1l-3,3.1
			c-0.2,0.3-0.7,0.3-0.9,0.1c0,0,0,0-0.1-0.1c-1.4-1.3-3.3-2-5.2-2c-4.4,0.2-7.7,3.9-7.5,8.3c0.2,4.1,3.5,7.3,7.5,7.5
			c1.9,0,3.7-0.7,5.2-1.9c0.3-0.2,0.7-0.2,1,0l3,3.2c0.2,0.3,0.2,0.7,0,1c-2.5,2.4-5.9,3.8-9.4,3.8c-7.7,0.2-14.1-5.9-14.3-13.6
			s5.9-14.1,13.6-14.3c0.2,0,0.5,0,0.7,0L245.6,130.8z"/>
		<path class="st0" d="M271.5,130.8c7.7,0,14,6.2,14,13.9c0,7.7-6.2,14-13.9,14c-7.7,0-14-6.2-14-13.9
			C257.6,137.1,263.8,130.8,271.5,130.8C271.5,130.8,271.5,130.8,271.5,130.8z M271.5,152.5c4.3,0,7.8-3.4,7.8-7.7s-3.4-7.8-7.7-7.8
			c-4.3,0-7.8,3.4-7.8,7.7c0,0,0,0.1,0,0.1C263.8,149,267.3,152.4,271.5,152.5z"/>
		<path class="st0" d="M290.2,131.9c0-0.4,0.3-0.7,0.7-0.7c0,0,0,0,0,0h11.6c4.6,0,8.4,3.7,8.4,8.4c0,3.6-2.4,6.4-5.7,7.8l5.3,9.8
			c0.2,0.3,0.1,0.8-0.2,1c-0.1,0.1-0.3,0.1-0.4,0.1h-5.1c-0.3,0-0.5-0.1-0.6-0.4l-5.1-10.3h-2.7v9.9c0,0.4-0.3,0.7-0.7,0.7h-4.6
			c-0.4,0-0.7-0.3-0.7-0.7V131.9z M302,142.7c1.6-0.1,2.9-1.5,2.9-3.1c0-1.6-1.3-2.9-2.9-2.9h-5.7v6L302,142.7z"/>
		<path class="st0" d="M328,130.8c7.7,0,14,6.2,14,13.9c0,7.7-6.2,14-13.9,14c-7.7,0-14-6.2-14-13.9
			C314.1,137.1,320.3,130.8,328,130.8C328,130.8,328,130.8,328,130.8z M328,152.5c4.3,0,7.8-3.4,7.8-7.7s-3.4-7.8-7.7-7.8
			c-4.3,0-7.8,3.4-7.8,7.7c0,0,0,0.1,0,0.1C320.4,149,323.8,152.4,328,152.5z"/>
		<path class="st0" d="M346.6,131.5c0-0.4,0.3-0.7,0.7-0.7h1l15.5,14.9l0,0v-13.8c0-0.4,0.3-0.7,0.7-0.7c0,0,0,0,0,0h4.6
			c0.4,0,0.7,0.3,0.7,0.7V158c0,0.4-0.3,0.7-0.7,0.7h-0.6c-0.2,0-0.4-0.1-0.5-0.2l-15.3-15.4l0,0v14.4c0,0.4-0.3,0.7-0.7,0.7h-4.6
			c-0.4,0-0.7-0.3-0.7-0.7L346.6,131.5z"/>
		<path class="st0" d="M373.1,157.3l12.1-26.1c0.1-0.2,0.4-0.4,0.7-0.4h0.4c0.3,0,0.5,0.2,0.7,0.4l12.1,26.1
			c0.2,0.3,0.1,0.7-0.3,0.9c-0.1,0.1-0.2,0.1-0.4,0.1h-4.3c-0.7,0-1-0.2-1.4-1l-1.4-3.1h-10.5l-1.4,3.1c-0.2,0.6-0.8,0.9-1.4,0.9
			h-4.3c-0.4,0-0.7-0.3-0.7-0.6C373.1,157.5,373.1,157.4,373.1,157.3z M389.1,149l-2.9-6.4l0,0l-2.9,6.4H389.1z"/>
	</g>
</g>
</svg>
