<svg xmlns="http://www.w3.org/2000/svg" viewBox="0 0 416.23 214.04"><defs><style>.cls-1{fill:#ebbc56;}.cls-2{fill:#fff;}</style></defs><title>gana</title><g id="Layer_2" data-name="Layer 2"><g id="Layer_1-2" data-name="Layer 1"><path class="cls-1" d="M64.17.14C76,.14,88.88,5.06,98.43,13.34a2.46,2.46,0,0,1,.28,3.79L87.62,28.93a3,3,0,0,1-3.79.14c-5.34-4.92-11.52-6.74-18.4-6.74-15.31,0-27.66,12.92-27.66,28.36a28,28,0,0,0,27.8,28,33.1,33.1,0,0,0,12.5-2.25V68.25H69.22a2.56,2.56,0,0,1-2.67-2.53V51.82a2.58,2.58,0,0,1,2.67-2.67H97.45A2.64,2.64,0,0,1,100,51.82l.14,37.77A3.49,3.49,0,0,1,99,91.84,70.91,70.91,0,0,1,64.17,101,50.42,50.42,0,1,1,64.17.14Z"/><path class="cls-1" d="M106.72,96.05,150.67,1.54A2.86,2.86,0,0,1,153.06,0h1.4a2.85,2.85,0,0,1,2.39,1.54l44,94.51a2.47,2.47,0,0,1-2.38,3.65H182.83c-2.53,0-3.65-.84-4.91-3.51L172.86,85.1h-38.2l-5,11.23a5.23,5.23,0,0,1-5.06,3.37H109.11A2.48,2.48,0,0,1,106.72,96.05Zm57.71-30L153.76,42.83h-.14L143.09,66Z"/><path class="cls-1" d="M212.18,2.53A2.64,2.64,0,0,1,214.85,0h3.51l56,53.92h.14V4.07A2.67,2.67,0,0,1,277.2,1.4h16.85a2.77,2.77,0,0,1,2.67,2.67V98.58a2.65,2.65,0,0,1-2.67,2.53H291.8a4.13,4.13,0,0,1-1.82-.7L234.51,44.66h-.14V97a2.66,2.66,0,0,1-2.67,2.66H215A2.76,2.76,0,0,1,212.32,97Z"/><path class="cls-1" d="M308.24,96.05,352.19,1.54A2.85,2.85,0,0,1,354.58,0H356a2.86,2.86,0,0,1,2.39,1.54l43.95,94.51a2.48,2.48,0,0,1-2.39,3.65H384.35c-2.53,0-3.65-.84-4.92-3.51L374.38,85.1h-38.2l-5.05,11.23a5.24,5.24,0,0,1-5.06,3.37H310.62A2.47,2.47,0,0,1,308.24,96.05ZM366,66,355.28,42.83h-.14L344.61,66Z"/><path class="cls-1" d="M21.59,142.39a6.82,6.82,0,0,1,7,7.09c0,.62,0,1.51-.58,1.51H15.66a6.12,6.12,0,0,0,6,6.12,8.25,8.25,0,0,0,4.57-1.43c.35-.23.51-.27.7,0l.39.54c.12.16.08.39-.16.62a9.3,9.3,0,0,1-5.61,1.82c-4.73,0-7.64-3.64-7.64-8.17S16.86,142.39,21.59,142.39Zm5.3,7.21c0-3-1.82-5.66-5.3-5.66a5.76,5.76,0,0,0-5.89,5.66Z"/><path class="cls-1" d="M33.17,143.28a.52.52,0,0,1,.54-.5h.39a.43.43,0,0,1,.46.39l.16,1.66a8.27,8.27,0,0,1,5.73-2.44c4.34,0,6.24,2.75,6.24,7.09v8.29a.52.52,0,0,1-.5.51h-.7a.52.52,0,0,1-.5-.51v-8.29c0-3.56-1.67-5.42-4.61-5.42a8,8,0,0,0-5.55,2.67v11a.45.45,0,0,1-.5.51h-.74a.45.45,0,0,1-.42-.51Z"/><path class="cls-1" d="M60.75,131.66a.51.51,0,0,1,.5-.5H62a.52.52,0,0,1,.51.5v26.11a.46.46,0,0,1-.51.51h-.77a.46.46,0,0,1-.43-.51Z"/><path class="cls-1" d="M73.61,148.28a12.67,12.67,0,0,1,3.92.7c0-3.41-.35-5.12-3.41-5.12a11.28,11.28,0,0,0-4.65,1,.4.4,0,0,1-.58-.31l-.2-.47a.41.41,0,0,1,.23-.58,11.4,11.4,0,0,1,5.31-1.16c4.73,0,4.92,2.83,4.92,6.78v8.6a.52.52,0,0,1-.5.51h-.47c-.27,0-.38-.16-.46-.43l-.16-1.4a8.07,8.07,0,0,1-5.38,2.21,4.88,4.88,0,0,1-5.08-5.15C67.1,150.53,69.54,148.28,73.61,148.28Zm-1.24,8.87a7.06,7.06,0,0,0,5.16-2.4v-4.26a10.16,10.16,0,0,0-3.92-.82c-2.94,0-4.92,1.52-4.92,3.8A3.5,3.5,0,0,0,72.37,157.15Z"/><path class="cls-1" d="M94.26,144.29H91.93a.49.49,0,0,1-.5-.5v-.51a.51.51,0,0,1,.5-.5h2.33v-5.31c0-4.57,2.48-6.7,5.85-6.7a6.17,6.17,0,0,1,4.34,1.66.5.5,0,0,1,.08.62l-.39.55a.4.4,0,0,1-.66,0,5.39,5.39,0,0,0-3.37-1.32c-2.44,0-4.15,1.59-4.15,5.15v5.31h5.74a.45.45,0,0,1,.5.46v.58a.44.44,0,0,1-.5.47H96v13.48a.52.52,0,0,1-.5.51h-.7a.52.52,0,0,1-.5-.51Z"/><path class="cls-1" d="M111.92,142.39a6.82,6.82,0,0,1,7,7.09c0,.62,0,1.51-.58,1.51H106a6.11,6.11,0,0,0,6,6.12,8.27,8.27,0,0,0,4.57-1.43c.35-.23.51-.27.7,0l.39.54c.11.16.07.39-.16.62a9.31,9.31,0,0,1-5.62,1.82c-4.72,0-7.63-3.64-7.63-8.17S107.2,142.39,111.92,142.39Zm5.31,7.21c0-3-1.82-5.66-5.31-5.66A5.76,5.76,0,0,0,106,149.6Z"/><path class="cls-1" d="M123.51,143.28a.51.51,0,0,1,.5-.5h.47a.46.46,0,0,1,.46.43l.15,1.58a6,6,0,0,1,4.85-2.4,6.29,6.29,0,0,1,2.4.47c.35.11.54.38.43.69l-.31.78c-.12.27-.35.31-.62.19a5,5,0,0,0-2-.46,5.46,5.46,0,0,0-4.61,2.67v11a.45.45,0,0,1-.5.51h-.78a.45.45,0,0,1-.42-.51Z"/><path class="cls-1" d="M135.59,133.91a1.32,1.32,0,1,1,2.64,0,1.32,1.32,0,0,1-2.64,0Zm.47,9.37a.51.51,0,0,1,.5-.5h.7a.51.51,0,0,1,.5.5v14.49a.45.45,0,0,1-.5.51h-.78a.45.45,0,0,1-.42-.51Z"/><path class="cls-1" d="M148.92,148.28a12.52,12.52,0,0,1,3.91.7c0-3.41-.35-5.12-3.41-5.12a11.33,11.33,0,0,0-4.65,1,.4.4,0,0,1-.58-.31l-.19-.47a.4.4,0,0,1,.23-.58,11.35,11.35,0,0,1,5.31-1.16c4.73,0,4.92,2.83,4.92,6.78v8.6a.52.52,0,0,1-.5.51h-.47c-.27,0-.39-.16-.46-.43l-.16-1.4a8.09,8.09,0,0,1-5.38,2.21,4.88,4.88,0,0,1-5.08-5.15C142.41,150.53,144.85,148.28,148.92,148.28Zm-1.24,8.87a7,7,0,0,0,5.15-2.4v-4.26a10,10,0,0,0-3.91-.82c-2.94,0-4.92,1.52-4.92,3.8A3.5,3.5,0,0,0,147.68,157.15Z"/><path class="cls-1" d="M175.57,142.39a7.52,7.52,0,0,1,5.74,2.44.47.47,0,0,1-.08.7l-.39.39c-.27.27-.58.15-.81-.08a6.46,6.46,0,1,0-4.5,11.2,6.29,6.29,0,0,0,4.85-2.29c.27-.31.5-.31.73-.08l.43.39c.19.19.27.39.11.62a7.7,7.7,0,0,1-6.08,3,8.14,8.14,0,0,1,0-16.27Z"/><path class="cls-1" d="M193,142.39a8.14,8.14,0,1,1-7.78,8.1A8,8,0,0,1,193,142.39Zm0,14.68a6.54,6.54,0,1,0-6.12-6.58A6.29,6.29,0,0,0,193,157.07Z"/><path class="cls-1" d="M205.52,143.28a.52.52,0,0,1,.54-.5h.39a.43.43,0,0,1,.46.39l.16,1.66a8.27,8.27,0,0,1,5.73-2.44c4.34,0,6.24,2.75,6.24,7.09v8.29a.53.53,0,0,1-.51.51h-.69a.52.52,0,0,1-.51-.51v-8.29c0-3.56-1.66-5.42-4.61-5.42a8,8,0,0,0-5.54,2.67v11a.45.45,0,0,1-.5.51h-.74a.45.45,0,0,1-.42-.51Z"/><path class="cls-1" d="M245.65,130.77a13,13,0,0,1,9.38,3.6.73.73,0,0,1,0,1.09l-3,3.13a.67.67,0,0,1-1,0,7.94,7.94,0,0,0-5.23-2,7.93,7.93,0,0,0,0,15.84,8.13,8.13,0,0,0,5.19-1.86.77.77,0,0,1,1,0l3,3.22a.77.77,0,0,1,0,1,13.3,13.3,0,0,1-9.41,3.75,13.95,13.95,0,1,1,0-27.89Z"/><path class="cls-1" d="M271.53,130.77a13.95,13.95,0,1,1-13.91,14A13.92,13.92,0,0,1,271.53,130.77Zm0,21.69a7.75,7.75,0,1,0-7.71-7.71A7.76,7.76,0,0,0,271.53,152.46Z"/><path class="cls-1" d="M290.16,131.89a.73.73,0,0,1,.74-.73h11.58a8.41,8.41,0,0,1,8.44,8.36c0,3.57-2.36,6.44-5.73,7.79l5.31,9.84a.74.74,0,0,1-.66,1.13h-5.15a.71.71,0,0,1-.62-.35l-5.15-10.27h-2.68v9.88a.77.77,0,0,1-.74.74h-4.6a.74.74,0,0,1-.74-.74ZM302,142.74a3.11,3.11,0,0,0,2.94-3.1A3,3,0,0,0,302,136.7h-5.74v6Z"/><path class="cls-1" d="M328.05,130.77a13.95,13.95,0,1,1-13.91,14A13.92,13.92,0,0,1,328.05,130.77Zm0,21.69a7.75,7.75,0,1,0-7.71-7.71A7.75,7.75,0,0,0,328.05,152.46Z"/><path class="cls-1" d="M346.64,131.47a.73.73,0,0,1,.74-.7h1l15.46,14.88h0V131.89a.73.73,0,0,1,.74-.73h4.65a.75.75,0,0,1,.73.73V158a.73.73,0,0,1-.73.69h-.62a1.13,1.13,0,0,1-.51-.19l-15.3-15.38h0v14.45a.74.74,0,0,1-.74.74h-4.6a.77.77,0,0,1-.74-.74Z"/><path class="cls-1" d="M373.14,157.27l12.12-26.08a.79.79,0,0,1,.66-.42h.39a.79.79,0,0,1,.66.42l12.12,26.08a.68.68,0,0,1-.65,1h-4.31c-.69,0-1-.24-1.35-1l-1.4-3.06H380.85l-1.4,3.1a1.44,1.44,0,0,1-1.39.93H373.8A.68.68,0,0,1,373.14,157.27ZM389.06,149l-2.94-6.4h0l-2.91,6.4Z"/><path class="cls-2" d="M0,194.79a.35.35,0,0,1,.36-.36H7.21a6,6,0,0,1,6.16,5.91,6.06,6.06,0,0,1-4.56,5.78l4,7.15c.14.22.08.5-.19.5h-.86a.39.39,0,0,1-.38-.25l-4-7.24c-.36,0-.66,0-1,0H1.3v7.1a.4.4,0,0,1-.44.36H.36a.37.37,0,0,1-.36-.36Zm7.15,10.36A4.83,4.83,0,0,0,12,200.34a4.77,4.77,0,0,0-4.92-4.64H1.33v9.45Z"/><path class="cls-2" d="M18,194.79a.37.37,0,0,1,.36-.36H29.39a.37.37,0,0,1,.36.36v.47a.36.36,0,0,1-.36.36H19.28v7.62H28a.36.36,0,0,1,.36.36v.47a.36.36,0,0,1-.36.36H19.28v8.18H29.39a.36.36,0,0,1,.36.35v.45a.37.37,0,0,1-.36.36H18.31a.37.37,0,0,1-.36-.36Z"/><path class="cls-2" d="M43,194.16a9.5,9.5,0,0,1,6.69,2.56.35.35,0,0,1,0,.5,5,5,0,0,1-.44.47c-.16.19-.3.17-.47,0A8.5,8.5,0,0,0,43,195.37a8.7,8.7,0,0,0,0,17.4,10.35,10.35,0,0,0,5.74-1.52v-5.19H44c-.31,0-.36-.11-.36-.36v-.55c0-.22,0-.33.36-.33h5.66a.36.36,0,0,1,.36.33v6.41a.75.75,0,0,1-.39.71A12.69,12.69,0,0,1,43,214a9.94,9.94,0,1,1,0-19.88Z"/><path class="cls-2" d="M54.91,194.79a.36.36,0,0,1,.36-.36h.61a.36.36,0,0,1,.35.36v18.62a.37.37,0,0,1-.38.36h-.58a.36.36,0,0,1-.36-.36Z"/><path class="cls-2" d="M60.93,211.2l.25-.33c.19-.23.39-.31.61-.12a8,8,0,0,0,5.11,2.13c2.51,0,4.64-1.68,4.64-3.7,0-2.46-2-3.56-5.36-4.69s-5.33-2.27-5.33-5.45c0-2.07,1.65-4.88,6-4.88a9,9,0,0,1,4.75,1.41.39.39,0,0,1,.11.58,3.37,3.37,0,0,0-.22.35.4.4,0,0,1-.61.14,8.11,8.11,0,0,0-4-1.3c-3.4,0-4.67,2.1-4.67,3.68,0,2.35,1.79,3.37,4.58,4.28,3.79,1.3,6.19,2.62,6.19,5.83,0,2.76-2.85,4.91-6,4.91A9,9,0,0,1,61,211.78C60.85,211.64,60.71,211.5,60.93,211.2Z"/><path class="cls-2" d="M80,195.62H74.74c-.28,0-.36-.16-.36-.41v-.42a.35.35,0,0,1,.36-.36H86.62a.35.35,0,0,1,.36.36v.47a.35.35,0,0,1-.36.36H81.31v17.79a.39.39,0,0,1-.44.36h-.49a.36.36,0,0,1-.36-.36Z"/><path class="cls-2" d="M90.12,194.79a.35.35,0,0,1,.36-.36h6.85a6,6,0,0,1,6.16,5.91,6.05,6.05,0,0,1-4.56,5.78l4,7.15c.13.22.08.5-.2.5h-.85a.4.4,0,0,1-.39-.25l-4-7.24c-.36,0-.67,0-1,0H91.42v7.1a.39.39,0,0,1-.44.36h-.5a.37.37,0,0,1-.36-.36Zm7.16,10.36a4.83,4.83,0,0,0,4.89-4.81,4.77,4.77,0,0,0-4.92-4.64h-5.8v9.45Z"/><path class="cls-2" d="M105.32,213.43l8.5-19.22a.4.4,0,0,1,.33-.19h.09a.35.35,0,0,1,.35.19L123,213.43c0,.17,0,.34-.25.34h-.72a.44.44,0,0,1-.38-.25l-2.24-5.08H108.88l-2.21,5.08a.45.45,0,0,1-.39.25h-.77C105.32,213.77,105.23,213.66,105.32,213.43ZM119,207.36l-4.72-11.13h-.06l-4.8,11.13Z"/><path class="cls-2" d="M135,195.62h-5.27c-.28,0-.36-.16-.36-.41v-.42a.35.35,0,0,1,.36-.36h11.88a.34.34,0,0,1,.35.36v.47a.34.34,0,0,1-.35.36h-5.31v17.79a.39.39,0,0,1-.44.36h-.5a.37.37,0,0,1-.36-.36Z"/><path class="cls-2" d="M144.92,194.79a.37.37,0,0,1,.36-.36h.58a.37.37,0,0,1,.36.36v11.79c0,3.57,2.24,6.19,5.91,6.19s6-2.6,6-6.16V194.79c0-.22.11-.36.38-.36H159a.36.36,0,0,1,.35.36v11.93a7.24,7.24,0,1,1-14.47,0Z"/><path class="cls-2" d="M173,198.49h-4a.52.52,0,0,1-.53-.52v-3a.53.53,0,0,1,.53-.53h12.26a.52.52,0,0,1,.52.53v3a.52.52,0,0,1-.52.52h-4v14.75a.55.55,0,0,1-.53.53h-3.31a.54.54,0,0,1-.52-.53Z"/><path class="cls-2" d="M184.56,195a.54.54,0,0,1,.52-.53h3.32a.55.55,0,0,1,.52.53v18.28a.55.55,0,0,1-.52.53h-3.32a.54.54,0,0,1-.52-.53Z"/><path class="cls-2" d="M202.23,194.16a9.3,9.3,0,0,1,6.69,2.56.51.51,0,0,1,0,.78l-2.15,2.24a.49.49,0,0,1-.69,0,5.61,5.61,0,0,0-3.73-1.41,5.65,5.65,0,0,0,0,11.29,5.88,5.88,0,0,0,3.7-1.32.54.54,0,0,1,.72,0l2.15,2.29a.53.53,0,0,1,0,.74,9.43,9.43,0,0,1-6.71,2.68,9.94,9.94,0,1,1,0-19.88Z"/><path class="cls-2" d="M212.26,195.1a.66.66,0,0,1,.66-.67h3.23a.68.68,0,0,1,.67.67v7.26l6.13-7.65a.82.82,0,0,1,.52-.28H227a.64.64,0,0,1,.5,1L221,203.55l7,9.17a.65.65,0,0,1-.53,1h-3.81a.7.7,0,0,1-.49-.2l-6.38-8.67v8.23a.68.68,0,0,1-.67.67h-3.23a.66.66,0,0,1-.66-.67Z"/><path class="cls-2" d="M230.85,195a.52.52,0,0,1,.52-.53h11.44a.52.52,0,0,1,.52.53v3a.52.52,0,0,1-.52.52h-7.65v3.43h6.29a.55.55,0,0,1,.53.52v3a.53.53,0,0,1-.53.53h-6.29v3.73h7.65a.52.52,0,0,1,.52.52v3a.52.52,0,0,1-.52.53H231.37a.52.52,0,0,1-.52-.53Z"/><path class="cls-2" d="M249.52,198.49h-4A.53.53,0,0,1,245,198v-3a.53.53,0,0,1,.53-.53h12.26a.53.53,0,0,1,.53.53v3a.52.52,0,0,1-.53.52h-3.95v14.75a.55.55,0,0,1-.52.53H250a.55.55,0,0,1-.52-.53Z"/><path class="cls-2" d="M276.23,194.16a9.94,9.94,0,1,1-10,10A9.93,9.93,0,0,1,276.23,194.16Zm0,18.67a8.73,8.73,0,1,0-8.73-8.7A8.71,8.71,0,0,0,276.23,212.83Zm-2.32-20.75-.14-.27a.29.29,0,0,1,.16-.39l4.53-2.48c.11-.06.36-.11.47.08l.28.55a.3.3,0,0,1-.11.42l-4.75,2.18C274.1,192.28,274,192.25,273.91,192.08Z"/><path class="cls-2" d="M296.11,195a.53.53,0,0,1,.53-.53h11.43a.53.53,0,0,1,.53.53v3a.52.52,0,0,1-.53.52h-7.65v4h6.3a.54.54,0,0,1,.52.52v3a.54.54,0,0,1-.52.53h-6.3v6.71a.55.55,0,0,1-.52.53h-3.26a.53.53,0,0,1-.53-.53Z"/><path class="cls-2" d="M308.46,213.05l8.64-18.59a.56.56,0,0,1,.47-.3h.28a.55.55,0,0,1,.47.3L327,213.05a.48.48,0,0,1-.46.72h-3.07c-.5,0-.72-.17-1-.69l-1-2.19H314l-1,2.21a1,1,0,0,1-1,.67h-3A.49.49,0,0,1,308.46,213.05Zm11.35-5.91-2.1-4.56h0l-2.07,4.56Z"/><path class="cls-2" d="M337.62,194.16a9.29,9.29,0,0,1,6.69,2.56.52.52,0,0,1,0,.78l-2.16,2.24a.49.49,0,0,1-.69,0,5.59,5.59,0,0,0-3.73-1.41,5.65,5.65,0,0,0,0,11.29,5.86,5.86,0,0,0,3.7-1.32.54.54,0,0,1,.72,0l2.15,2.29a.54.54,0,0,1,0,.74,9.47,9.47,0,0,1-6.72,2.68,9.94,9.94,0,1,1,0-19.88Z"/><path class="cls-2" d="M350.14,198.49h-3.95a.52.52,0,0,1-.53-.52v-3a.53.53,0,0,1,.53-.53h12.26a.53.53,0,0,1,.53.53v3a.53.53,0,0,1-.53.52H354.5v14.75a.55.55,0,0,1-.52.53h-3.32a.55.55,0,0,1-.52-.53Z"/><path class="cls-2" d="M361.46,195a.55.55,0,0,1,.53-.53h3.39a.53.53,0,0,1,.53.53v11.18a3.37,3.37,0,0,0,3.39,3.48,3.41,3.41,0,0,0,3.46-3.48V195a.52.52,0,0,1,.52-.53h3.4a.54.54,0,0,1,.52.53v11.4a7.87,7.87,0,0,1-15.74,0Z"/><path class="cls-2" d="M381.65,195a.53.53,0,0,1,.53-.53h8.25A5.9,5.9,0,0,1,392.37,206l3.78,7a.53.53,0,0,1-.47.81H392a.5.5,0,0,1-.44-.25l-3.68-7.32H386v7a.55.55,0,0,1-.53.53h-3.28a.53.53,0,0,1-.53-.53Zm8.43,7.73a2.21,2.21,0,0,0,2.09-2.21,2.11,2.11,0,0,0-2.09-2.1H386v4.31Z"/><path class="cls-2" d="M397.67,213.05l8.65-18.59a.54.54,0,0,1,.47-.3h.27a.55.55,0,0,1,.47.3l8.65,18.59a.49.49,0,0,1-.47.72h-3.07c-.5,0-.72-.17-1-.69l-1-2.19h-7.51l-1,2.21a1,1,0,0,1-1,.67h-3A.49.49,0,0,1,397.67,213.05ZM409,207.14l-2.1-4.56h0l-2.07,4.56Z"/></g></g></svg>